<svg width="20" height="20" viewBox="0 0 20 20" fill="none" xmlns="http://www.w3.org/2000/svg">
<g clip-path="url(#clip0_1340_35628)">
<path d="M20 10C20 15.5228 15.5228 20 10 20C4.47715 20 0 15.5228 0 10C0 4.47715 4.47715 0 10 0C15.5228 0 20 4.47715 20 10Z" fill="#FCCE65"/>
<path d="M8.95833 18.3333C14.136 18.3333 18.3333 14.136 18.3333 8.95833C18.3333 5.13294 16.0422 1.84267 12.7572 0.384947C11.8814 0.134255 10.9564 0 10 0C4.47715 0 0 4.47715 0 10C0 10.9564 0.134255 11.8814 0.384947 12.7572C1.84267 16.0422 5.13294 18.3333 8.95833 18.3333Z" fill="#FFE371"/>
<path d="M6.6665 6.24996C6.6665 5.78972 7.0396 5.41663 7.49984 5.41663C7.96007 5.41663 8.33317 5.78972 8.33317 6.24996V7.91663C8.33317 8.37686 7.96007 8.74996 7.49984 8.74996C7.0396 8.74996 6.6665 8.37686 6.6665 7.91663V6.24996Z" fill="#7E5151"/>
<path d="M11.6665 6.24996C11.6665 5.78972 12.0396 5.41663 12.4998 5.41663C12.9601 5.41663 13.3332 5.78972 13.3332 6.24996V7.91663C13.3332 8.37686 12.9601 8.74996 12.4998 8.74996C12.0396 8.74996 11.6665 8.37686 11.6665 7.91663V6.24996Z" fill="#7E5151"/>
<path d="M9.99983 15.8334C12.621 15.8334 14.7711 13.8164 14.9827 11.2499C15.0016 11.0206 14.8133 10.8334 14.5832 10.8334H5.4165C5.18638 10.8334 4.99802 11.0206 5.01694 11.2499C5.22861 13.8164 7.37868 15.8334 9.99983 15.8334Z" fill="#DA5C63"/>
<path d="M13.3597 14.5363C12.472 15.3422 11.2933 15.8333 9.9999 15.8333C8.70651 15.8333 7.52783 15.3422 6.64014 14.5363C7.25393 13.5763 8.52787 12.9166 9.9999 12.9166C11.4719 12.9166 12.7459 13.5763 13.3597 14.5363Z" fill="#FF808A"/>
</g>
<defs>
<clipPath id="clip0_1340_35628">
<rect width="20" height="20" fill="white"/>
</clipPath>
</defs>
</svg>
