<svg xmlns="http://www.w3.org/2000/svg" width="18" height="18" viewBox="0 0 18 18" fill="none">
  <g clip-path="url(#clip0_11326_126473)">
    <path d="M8.0625 0.375C3.81681 0.375 0.375 3.81681 0.375 8.0625C0.375 12.3082 3.81681 15.75 8.0625 15.75C9.77954 15.75 11.3651 15.1871 12.6447 14.2357L15.7045 17.2955C16.1438 17.7348 16.8562 17.7348 17.2955 17.2955C17.7348 16.8562 17.7348 16.1438 17.2955 15.7045L14.2357 12.6447C15.1871 11.3651 15.75 9.77954 15.75 8.0625C15.75 3.81681 12.3082 0.375 8.0625 0.375ZM2.625 8.0625C2.625 5.05945 5.05945 2.625 8.0625 2.625C11.0655 2.625 13.5 5.05945 13.5 8.0625C13.5 11.0655 11.0655 13.5 8.0625 13.5C5.05945 13.5 2.625 11.0655 2.625 8.0625Z" fill="#17181A"/>
  </g>
  <defs>
    <clipPath id="clip0_11326_126473">
      <rect width="18" height="18" fill="white"/>
    </clipPath>
  </defs>
</svg>
